<?xml version="1.0" standalone="no"?>
<!DOCTYPE svg PUBLIC "-//W3C//DTD SVG 20010904//EN"
 "http://www.w3.org/TR/2001/REC-SVG-20010904/DTD/svg10.dtd">
<svg version="1.0" xmlns="http://www.w3.org/2000/svg"
 width="223.000000pt" height="226.000000pt" viewBox="0 0 223.000000 226.000000"
 preserveAspectRatio="xMidYMid meet">

<g transform="translate(0.000000,226.000000) scale(0.100000,-0.100000)"
fill="#000000" stroke="none">
<path d="M966 2250 c-378 -60 -718 -323 -867 -671 -185 -433 -92 -917 241
-1250 148 -147 311 -241 519 -297 84 -22 116 -25 256 -25 140 0 172 3 256 25
208 56 374 151 519 298 352 354 435 869 212 1315 -19 39 -43 83 -54 98 -11 15
-18 33 -15 40 2 7 41 32 86 55 85 46 117 78 107 109 -9 27 -300 313 -318 313
-36 0 -51 -16 -93 -101 -25 -48 -49 -90 -54 -93 -6 -4 -49 16 -97 43 -100 58
-218 103 -330 126 -95 20 -286 28 -368 15z m309 -135 c113 -18 183 -42 296
-102 124 -65 127 -69 99 -135 -40 -94 -91 -179 -103 -171 -7 3 -31 20 -55 36
-117 79 -246 117 -397 117 -119 0 -193 -15 -293 -61 -193 -87 -340 -255 -408
-464 -35 -109 -37 -293 -4 -400 41 -131 96 -222 195 -321 76 -77 105 -98 185
-137 124 -61 200 -80 325 -80 334 0 633 239 716 573 22 90 18 261 -10 350 -25
82 -76 187 -115 239 -14 19 -26 40 -26 45 0 6 50 37 111 70 89 47 113 56 121
45 130 -194 182 -367 181 -599 0 -123 -4 -160 -26 -242 -94 -357 -337 -608
-692 -714 -82 -25 -104 -27 -260 -27 -155 0 -178 2 -260 27 -286 85 -503 268
-625 529 -213 454 -64 1006 344 1272 100 65 171 98 270 125 148 41 285 49 431
25z m714 -99 l64 -64 -132 -66 -131 -66 13 32 c27 62 112 228 117 228 3 0 34
-29 69 -64z m-718 -301 c76 -20 146 -50 186 -81 l32 -25 -92 -96 -93 -96 -69
28 c-124 49 -245 24 -349 -75 -71 -67 -109 -149 -110 -240 -1 -119 81 -246
199 -308 43 -23 62 -27 140 -27 78 0 97 4 141 27 68 36 136 106 170 173 24 50
26 63 22 148 -3 78 -8 100 -30 138 l-27 46 98 97 98 98 31 -49 c220 -344 66
-798 -312 -919 -111 -36 -267 -38 -371 -5 -252 80 -424 313 -425 574 0 88 27
204 68 287 68 139 220 263 373 304 72 20 246 20 320 1z m-81 -385 c12 -7 -1
-25 -63 -88 -82 -84 -91 -108 -57 -142 36 -36 64 -26 150 56 44 43 83 74 86
71 17 -16 24 -94 14 -143 -22 -107 -93 -164 -203 -164 -83 0 -140 29 -178 88
-25 40 -29 55 -29 120 0 96 24 143 95 183 40 23 62 29 110 29 33 0 67 -5 75
-10z"/>
</g>
</svg>
